<?xml version="1.0" encoding="UTF-8" standalone="no"?>
<svg
   viewBox="0 0 346 342"
   version="1.1"
   id="svg1"
   sodipodi:docname="css.svg"
   xml:space="preserve"
   width="346"
   height="342"
   inkscape:version="1.4.2 (f4327f4, 2025-05-13)"
   xmlns:inkscape="http://www.inkscape.org/namespaces/inkscape"
   xmlns:sodipodi="http://sodipodi.sourceforge.net/DTD/sodipodi-0.dtd"
   xmlns="http://www.w3.org/2000/svg"
   xmlns:svg="http://www.w3.org/2000/svg"><defs
     id="defs1" /><sodipodi:namedview
     id="namedview1"
     pagecolor="#ffffff"
     bordercolor="#000000"
     borderopacity="0.25"
     inkscape:showpageshadow="2"
     inkscape:pageopacity="0.0"
     inkscape:pagecheckerboard="0"
     inkscape:deskcolor="#d1d1d1"
     inkscape:zoom="0.6468254"
     inkscape:cx="109.76687"
     inkscape:cy="362.53988"
     inkscape:window-width="1920"
     inkscape:window-height="1017"
     inkscape:window-x="-8"
     inkscape:window-y="-8"
     inkscape:window-maximized="1"
     inkscape:current-layer="svg1" /><path
     d="m 111.44162,322.25499 q 0,4.99382 -0.57621,8.06693 -0.38414,3.26519 -1.34449,5.18589 -0.96036,1.9207 -2.30483,2.88105 -1.34449,0.96035 -2.88105,1.34449 -4.417615,1.15241 -8.451075,1.53655 -4.03347,0.38414 -9.02729,0.38414 -15.17351,0 -25.16114,-4.80174 -9.98763,-4.80175 -15.9418,-14.0211 -5.95416,-9.02728 -8.45107,-22.85631 -2.30484,-13.82903 -2.30484,-35.72499 v -33.03601 q 0,-12.1004 -1.53656,-19.20698 -1.53656,-7.10658 -4.80174,-12.48454 -3.26519,-5.57002 -8.45108,-9.21935 -4.99381,-3.64933 -12.29247,-4.80175 -1.92069,-0.38414 -3.26518,-1.34449 -1.34449,-1.15241 -2.30484,-3.07311 -0.96035,-2.11277 -1.53656,-5.57003 -0.38414,-3.45725 -0.38414,-8.45107 0,-5.18589 0.38414,-8.64314 0.38414,-3.64933 1.15242,-5.7621 0.96035,-2.11277 2.11277,-2.88104 1.34449,-0.96035 3.26519,-1.34449 13.44488,-1.9207 20.55147,-13.06075 7.10658,-11.14005 7.10658,-32.84394 V 77.7501 q 0,-21.89596 2.30484,-35.53292 2.49691,-13.82903 8.45107,-23.04838 6.14624,-9.41142 16.13387,-14.0211 9.98763,-4.80174 24.96907,-4.80174 4.99382,0 9.02729,0.57621 4.03346,0.38414 8.259005,1.34449 1.72863,0.19207 3.07312,1.15242 1.34447,0.96035 2.30483,2.88104 0.96035,1.9207 1.34449,5.37796 0.57621,3.26519 0.57621,8.06693 0,4.99382 -0.57621,8.259 -0.57621,3.26519 -1.53656,5.37796 -0.96036,2.11277 -2.4969,3.07312 -1.53656,0.76828 -3.07312,0.76828 l -7.106585,0.19207 q -4.80175,0.19207 -8.06694,1.92069 -3.07311,1.53656 -5.18588,5.7621 -1.9207,4.03347 -2.88105,11.14005 -0.76828,6.91451 -0.76828,21.70389 v 23.81666 q 0,14.78938 -2.11277,24.77701 -2.11277,9.98763 -6.91451,18.05456 -4.60968,8.06693 -12.1004,14.0211 -7.49072,5.76209 -18.4387,8.259 10.94798,2.49691 18.4387,8.259 7.49072,5.7621 12.1004,14.0211 4.80174,8.06693 6.91451,18.05456 2.11277,9.98764 2.11277,24.58494 v 32.26773 q 0,14.59731 0.76828,21.51182 0.96035,7.10659 2.68898,11.14005 1.9207,4.22554 4.60967,5.95417 2.88105,1.72863 7.10659,1.9207 h 7.106575 q 2.68899,0.19207 4.60969,0.96035 1.92068,0.96035 2.88104,2.88104 1.15242,2.11277 1.53656,5.37796 0.38414,3.26519 0.38414,8.45107 z m 234.13312,-155.9607 q 0,5.37796 -0.5762,8.83521 -0.38414,3.45726 -1.15242,5.57003 -0.76828,2.11277 -2.11277,3.07312 -1.34449,0.96034 -3.07312,1.15241 -7.29865,0.96035 -12.48454,5.7621 -5.18588,4.60967 -8.64314,11.71626 -3.2652,6.91451 -4.99381,15.55765 -1.53656,8.64315 -1.53656,21.51183 v 24.777 q 0,21.89596 -2.49692,35.53292 -2.30484,13.82903 -8.45107,23.04838 -5.95416,9.21935 -15.9418,14.0211 -9.98763,4.80174 -24.96908,4.80174 -4.80174,0 -8.83521,-0.57621 -4.03347,-0.38413 -8.83521,-1.34448 -1.53656,-0.38414 -2.88105,-1.34449 -1.15242,-0.96035 -2.11277,-2.88105 -0.96035,-1.9207 -1.53656,-5.18589 -0.5762,-3.07311 -0.5762,-8.06693 0,-4.99381 0.5762,-8.259 0.57621,-3.26519 1.53656,-5.37796 1.15242,-2.11276 2.49691,-3.07311 1.53656,-0.76828 3.07312,-0.96035 h 7.29865 q 4.80175,-0.19207 7.87486,-1.9207 3.26519,-1.53656 5.18589,-5.7621 2.11277,-4.03346 2.88105,-11.14005 0.96035,-7.10658 0.96035,-21.70389 V 240.0491 q 0,-14.5973 2.11276,-25.92942 2.11277,-11.33212 6.72245,-20.93561 4.60967,-9.79556 12.1004,-16.90215 7.68279,-7.29865 18.63077,-9.79556 -10.94798,-2.49691 -18.63077,-6.91451 -7.49073,-4.41761 -12.1004,-10.94798 -4.60968,-6.53038 -6.72245,-15.17352 -2.11276,-8.64314 -2.11276,-23.43252 V 77.94217 q 0,-14.59731 -0.96035,-21.51182 -0.76828,-7.10658 -2.49691,-11.33212 -1.72863,-4.22554 -4.60968,-5.7621 -2.88104,-1.72862 -7.10658,-1.92069 l -6.91451,-0.19207 q -2.88105,0 -4.80175,-0.76828 -1.9207,-0.96035 -3.07312,-2.88105 -1.15242,-1.9207 -1.53656,-5.18589 -0.38413,-3.45725 -0.38413,-8.64314 0,-4.80174 0.38413,-8.06693 0.57621,-3.45726 1.53656,-5.37796 1.15242,-1.92069 2.49691,-2.88104 1.34449,-0.96035 3.07312,-1.15242 4.4176,-1.15242 8.45107,-1.53656 4.03347,-0.38414 8.83521,-0.38414 15.17352,0 25.16115,4.80174 9.98763,4.60968 15.9418,13.82903 5.95416,9.21935 8.259,23.04838 2.49691,13.63696 2.49691,35.72499 v 33.03601 q 0,11.90833 1.53656,17.86249 1.53655,5.7621 4.60967,9.6035 3.26519,3.84139 8.45107,6.14623 5.18589,2.30484 12.48454,3.64933 1.72863,0.19207 3.07312,1.34449 1.53656,0.96035 2.30484,3.07311 0.96035,2.11277 1.53656,5.57003 0.57621,3.26519 0.57621,8.259 z"
     id="text1"
     style="font-weight:bold;font-size:393.359px;line-height:0;font-family:Calibri;-inkscape-font-specification:'Calibri Bold';letter-spacing:0px;fill:#7451c8;fill-rule:evenodd;stroke-width:3.68774;stroke-linecap:round;stroke-miterlimit:19.8"
     aria-label="{ }" /></svg>
