<?xml version="1.0" encoding="UTF-8" standalone="no"?>
<!-- Uploaded to: SVG Repo, www.svgrepo.com, Generator: SVG Repo Mixer Tools -->

<svg
   width="700"
   height="700"
   viewBox="0 0 21 21"
   fill="none"
   version="1.1"
   id="svg1"
   sodipodi:docname="gear.svg"
   inkscape:version="1.4.2 (f4327f4, 2025-05-13)"
   xmlns:inkscape="http://www.inkscape.org/namespaces/inkscape"
   xmlns:sodipodi="http://sodipodi.sourceforge.net/DTD/sodipodi-0.dtd"
   xmlns="http://www.w3.org/2000/svg"
   xmlns:svg="http://www.w3.org/2000/svg">
  <defs
     id="defs1" />
  <sodipodi:namedview
     id="namedview1"
     pagecolor="#ffffff"
     bordercolor="#000000"
     borderopacity="0.25"
     inkscape:showpageshadow="2"
     inkscape:pageopacity="0.0"
     inkscape:pagecheckerboard="0"
     inkscape:deskcolor="#d1d1d1"
     inkscape:zoom="0.72036503"
     inkscape:cx="353.9872"
     inkscape:cy="462.95973"
     inkscape:window-width="1920"
     inkscape:window-height="1017"
     inkscape:window-x="-8"
     inkscape:window-y="-8"
     inkscape:window-maximized="1"
     inkscape:current-layer="svg1" />
  <g
     id="g117"
     transform="translate(-1.5,-1.5)">
    <path
       d="M 10.927498,2.3755348 10.704651,4.158097 C 10.678221,4.3697744 10.52199,4.5422285 10.313991,4.589357 9.4641656,4.7818261 8.6682631,5.1168021 7.9526591,5.5681079 7.7722252,5.6819088 7.5398288,5.6704594 7.3714516,5.5394963 L 5.9527736,4.436086 4.4360904,5.9527692 5.5395005,7.3714472 c 0.1309633,0.1683873 0.1424027,0.4007736 0.028612,0.5812076 -0.4513158,0.715604 -0.7862818,1.5115065 -0.9787509,2.3613312 -0.047131,0.207999 -0.2195827,0.364215 -0.43126,0.39066 l -1.7825622,0.222847 v 2.144961 l 1.7825622,0.222843 c 0.2116774,0.02637 0.3841315,0.182665 0.43126,0.390662 0.1924691,0.849782 0.5274451,1.645674 0.9787509,2.361334 0.1137909,0.180433 0.1023515,0.412832 -0.028606,0.581203 l -1.103409,1.418622 1.5167426,1.516743 1.418618,-1.103468 c 0.1683873,-0.130892 0.4007737,-0.14233 0.581208,-0.0285 0.7156035,0.451343 1.511506,0.786265 2.3613299,0.978755 0.207999,0.04715 0.364216,0.219562 0.390661,0.431201 l 0.222847,1.782616 h 2.14496 l 0.222844,-1.78262 c 0.0264,-0.211639 0.182664,-0.384098 0.390662,-0.431201 0.849781,-0.19249 1.645673,-0.527412 2.361334,-0.978755 0.180431,-0.113774 0.412725,-0.102336 0.581201,0.0285 l 1.418623,1.103527 1.516802,-1.516802 -1.103527,-1.418622 c -0.130893,-0.168371 -0.142331,-0.40077 -0.0285,-0.581203 0.451343,-0.71566 0.786265,-1.511552 0.978755,-2.361334 0.04715,-0.207997 0.219562,-0.364222 0.431201,-0.390662 l 1.782602,-0.222838 V 10.927493 L 19.841829,10.704646 C 19.630164,10.6782 19.457705,10.521985 19.410602,10.313986 19.218111,9.4641512 18.883189,8.6682588 18.431846,7.9526548 18.318072,7.7722208 18.32951,7.5398244 18.460395,7.3714472 l 1.10353,-1.418618 -1.516743,-1.5167432 -1.418681,1.1034101 c -0.168477,0.1309633 -0.40077,0.1424027 -0.581203,0.028612 -0.71566,-0.4513058 -1.511552,-0.7862818 -2.361334,-0.9787509 -0.207997,-0.047129 -0.364222,-0.2195827 -0.390662,-0.43126 l -0.222843,-1.782562 z m 1.072482,5.572015 a 4.0524033,4.0524033 0 0 1 4.05242,4.0524252 4.0524033,4.0524033 0 0 1 -4.05242,4.05242 4.0524033,4.0524033 0 0 1 -4.0524258,-4.05242 4.0524033,4.0524033 0 0 1 4.0524258,-4.0524252 z"
       style="fill:#4d4d4d;fill-rule:evenodd;stroke:none;stroke-width:0.00455893;stroke-linecap:round;stroke-miterlimit:19.8"
       id="path114" />
    <g
       id="g116">
      <path
         d="m 10.5,1.5 c -0.2522,0 -0.464913,0.1877783 -0.496113,0.4379883 L 9.7717383,3.7952344 C 9.0651209,3.9867026 8.3951064,4.2669053 7.7745117,4.6231055 L 6.296543,3.4736133 C 6.097503,3.3188033 5.8143156,3.3363875 5.6360156,3.5146875 L 3.5147461,5.6360156 C 3.3364361,5.8143256 3.3188033,6.097493 3.4736133,6.296543 L 4.6231055,7.7745117 C 4.2669054,8.395108 3.9867026,9.0651193 3.7952344,9.7717383 L 1.9379883,10.003887 C 1.6877783,10.035087 1.5,10.2478 1.5,10.5 v 3 c 0,0.2522 0.1877783,0.464913 0.4379883,0.496113 l 1.8571875,0.232149 c 0.1914676,0.706646 0.4717257,1.376644 0.8279297,1.997226 l -1.1494922,1.47791 c -0.15482,0.1991 -0.1371772,0.482286 0.041133,0.660586 l 2.1212695,2.121328 c 0.17831,0.1783 0.4614874,0.195875 0.6605274,0.04107 L 7.7745119,19.37689 h 5.86e-5 c 0.6205894,0.356214 1.2905639,0.636488 1.997168,0.827929 l 0.2321485,1.857188 C 10.035087,22.312212 10.2478,22.5 10.5,22.5 h 3 c 0.2522,0 0.464913,-0.187788 0.496113,-0.437988 l 0.232149,-1.857188 c 0.706635,-0.191439 1.376594,-0.471713 1.997168,-0.827929 l 1.477968,1.149492 c 0.1991,0.1548 0.482286,0.137225 0.660586,-0.04107 l 2.121328,-2.121328 c 0.1783,-0.1783 0.195875,-0.461486 0.04107,-0.660586 L 19.376895,16.22543 c 0.356216,-0.620574 0.63649,-1.290533 0.827929,-1.997168 l 1.857188,-0.232149 C 22.312212,13.964913 22.5,13.7522 22.5,13.5 v -3 c 0,-0.2522 -0.187788,-0.464913 -0.437988,-0.496113 L 20.204824,9.7717383 C 20.013384,9.0651285 19.733109,8.3951069 19.376895,7.7745117 L 20.526387,6.296543 c 0.1548,-0.19904 0.137225,-0.4822174 -0.04107,-0.6605274 L 18.363984,3.5146875 c -0.100293,-0.1002994 -0.233763,-0.1497384 -0.366797,-0.14625 -0.10347,0.00271 -0.206682,0.037442 -0.293789,0.1051758 l -1.47791,1.1494922 C 15.604908,4.2669035 14.934905,3.9866427 14.228262,3.7951758 L 13.996113,1.9379883 C 13.964913,1.6877783 13.7522,1.5 13.5,1.5 Z m 0.441387,1.0000195 h 2.117226 l 0.219961,1.7595117 c 0.0261,0.20894 0.180306,0.3791636 0.385606,0.4256836 0.8388,0.18998 1.6244,0.5206238 2.3308,0.9660938 0.1781,0.11232 0.407392,0.1010278 0.573692,-0.028242 l 1.400332,-1.0891406 1.497129,1.4971289 -1.089258,1.4002734 c -0.1292,0.1662 -0.140484,0.3955914 -0.02818,0.5736914 0.4455,0.70635 0.776094,1.4919508 0.966094,2.3308003 0.0465,0.2053 0.216725,0.359506 0.425625,0.385606 l 1.75957,0.219961 v 2.117226 l -1.75957,0.219961 c -0.2089,0.0261 -0.379125,0.180306 -0.425625,0.385606 -0.19,0.8388 -0.520594,1.6244 -0.966094,2.3308 -0.1123,0.1781 -0.101016,0.407492 0.02818,0.573692 l 1.089258,1.400273 -1.497188,1.497188 -1.400273,-1.089258 c -0.1663,-0.1292 -0.395592,-0.140484 -0.573692,-0.02818 -0.7064,0.4455 -1.492,0.776094 -2.3308,0.966094 -0.2053,0.0465 -0.359506,0.216725 -0.385606,0.425625 l -0.219961,1.75957 h -2.117226 l -0.219961,-1.75957 c -0.0261,-0.2089 -0.180306,-0.379125 -0.385606,-0.425625 -0.8388397,-0.19 -1.6244505,-0.520594 -2.3308005,-0.966094 -0.1781,-0.1123 -0.4074814,-0.101016 -0.5736914,0.02818 L 6.0310547,19.466074 4.5339258,17.968945 5.6230664,16.568672 c 0.12927,-0.1662 0.1405622,-0.395592 0.028242,-0.573692 -0.44547,-0.7064 -0.7761138,-1.492 -0.9660938,-2.3308 -0.04652,-0.2053 -0.2167435,-0.359506 -0.4256836,-0.385606 L 2.5000195,13.058613 v -2.117226 l 1.7595117,-0.219961 c 0.20894,-0.0261 0.3791636,-0.180306 0.4256836,-0.385606 0.18998,-0.8388397 0.5206138,-1.6244505 0.9660938,-2.3308005 0.11232,-0.1781 0.1010278,-0.4074814 -0.028242,-0.5736914 L 4.5339258,6.0309961 6.0309961,4.5339258 7.4313281,5.6230664 c 0.1662,0.12927 0.3955914,0.1405722 0.5736914,0.028242 0.70635,-0.44547 1.4919608,-0.7761138 2.3308005,-0.9660938 0.2053,-0.04652 0.359506,-0.2167435 0.385606,-0.4256836 z M 2.0620313,13.003887 2.0000391,13.5 h -5.86e-5 z"
         style="fill:#000000"
         id="path115" />
      <path
         d="M 12,7.9999805 A 4,4 0 0 0 7.9999805,12 4,4 0 0 0 12,16.00002 4,4 0 0 0 16.00002,12 4,4 0 0 0 12,7.9999805 Z"
         style="stroke:#000000;stroke-linejoin:round"
         id="path116" />
    </g>
  </g>
</svg>
