<?xml version="1.0" encoding="UTF-8" standalone="no"?>
<svg
   viewBox="0 0 276 177.5"
   version="1.1"
   id="svg5"
   sodipodi:docname="html.svg"
   inkscape:version="1.4.2 (f4327f4, 2025-05-13)"
   width="276"
   height="177.5"
   xmlns:inkscape="http://www.inkscape.org/namespaces/inkscape"
   xmlns:sodipodi="http://sodipodi.sourceforge.net/DTD/sodipodi-0.dtd"
   xmlns="http://www.w3.org/2000/svg"
   xmlns:svg="http://www.w3.org/2000/svg"
   xmlns:rdf="http://www.w3.org/1999/02/22-rdf-syntax-ns#"
   xmlns:cc="http://creativecommons.org/ns#"
   xmlns:dc="http://purl.org/dc/elements/1.1/">
  <defs
     id="defs5" />
  <sodipodi:namedview
     id="namedview5"
     pagecolor="#ffffff"
     bordercolor="#000000"
     borderopacity="0.25"
     inkscape:showpageshadow="2"
     inkscape:pageopacity="0.0"
     inkscape:pagecheckerboard="0"
     inkscape:deskcolor="#d1d1d1"
     inkscape:zoom="1.1255704"
     inkscape:cx="226.5518"
     inkscape:cy="278.52545"
     inkscape:window-width="1920"
     inkscape:window-height="1017"
     inkscape:window-x="-8"
     inkscape:window-y="-8"
     inkscape:window-maximized="1"
     inkscape:current-layer="svg5" />
  <title
     id="title1">HTML5 Logo</title>
  <path
     style="font-weight:bold;font-size:203.059px;line-height:0;font-family:Calibri;-inkscape-font-specification:'Calibri Bold';letter-spacing:0px;fill:#f16529;fill-rule:evenodd;stroke-width:1.90368;stroke-linecap:round;stroke-miterlimit:19.8"
     d="m 84.06245,130.19466 q 0,3.66855 -0.29745,5.75069 -0.29745,2.08216 -0.9915,2.9745 -0.5949,0.89235 -1.58639,0.7932 -0.89235,-0.0992 -2.3796,-0.7932 L 2.75953,101.04459 q -1.3881,-0.7932 -2.08215,-3.27195 -0.5949,-2.5779 -0.5949,-7.63454 0,-2.5779 0.1983,-4.46175 0.1983,-1.983 0.49575,-3.17279 0.29745,-1.28895 0.7932,-1.983 0.5949,-0.7932 1.28895,-1.1898 L 78.80751,41.65379 q 2.87535,-1.38809 4.06514,0.5949 1.1898,1.88385 1.1898,7.83285 0,4.06514 -0.1983,6.44474 -0.0992,2.3796 -0.49575,3.7677 -0.3966,1.3881 -1.09065,1.98299 -0.69404,0.5949 -1.88384,1.1898 l -57.11035,26.77048 56.0197,25.97727 q 1.48725,0.69405 2.3796,1.3881 0.99149,0.69405 1.48724,2.1813 0.49575,1.3881 0.69405,3.86685 0.1983,2.37959 0.1983,6.54389 z m 35.39652,42.93191 q -0.49575,1.28895 -1.28895,2.08216 -0.7932,0.7932 -2.28045,1.28895 -1.3881,0.49574 -3.56939,0.69403 -2.08215,0.29746 -5.3541,0.29746 -4.06514,0 -6.64304,-0.3966 -2.5779,-0.39659 -3.966,-1.18979 -1.28895,-0.79321 -1.48725,-2.08216 -0.1983,-1.18979 0.3966,-2.87535 L 154.55804,4.47258 q 0.39659,-1.28895 1.18979,-2.08215 0.79319,-0.89235 2.18129,-1.3881 1.3881,-0.49575 3.5694,-0.69405 2.28045,-0.29745 5.45324,-0.29745 4.1643,0 6.64305,0.3966 2.5779,0.3966 3.86684,1.1898 1.28895,0.7932 1.48726,2.08215 0.1983,1.1898 -0.29746,2.87535 z M 275.91752,90.43556 q 0,2.5779 -0.1983,4.46174 -0.1983,1.88385 -0.5949,3.1728 -0.29745,1.28895 -0.89235,2.08215 -0.49575,0.69405 -1.1898,0.9915 l -76.04798,37.67696 q -1.3881,0.69405 -2.3796,0.5949 -0.99149,-0.0992 -1.68554,-1.09065 -0.5949,-0.9915 -0.89235,-2.87535 -0.1983,-1.98299 -0.1983,-4.9575 0,-4.06515 0.0992,-6.44474 0.1983,-2.3796 0.5949,-3.7677 0.3966,-1.3881 1.09065,-1.983 0.69404,-0.69405 1.88384,-1.1898 l 57.11035,-26.77046 -56.0197,-25.97729 q -1.5864,-0.69405 -2.5779,-1.3881 -0.89234,-0.69405 -1.38809,-2.08214 -0.49575,-1.48725 -0.69405,-3.86685 -0.0992,-2.47875 -0.0992,-6.64304 0,-3.66855 0.1983,-5.7507 0.29745,-2.08215 0.89235,-2.9745 0.69405,-0.89234 1.68554,-0.79319 0.9915,0.0992 2.3796,0.79319 l 76.14713,37.97442 q 1.28895,0.5949 1.983,3.1728 0.7932,2.57789 0.7932,7.63455 z"
     id="text1"
     aria-label="&lt;/&gt;" />
  <metadata
     id="metadata1">
    <rdf:RDF>
      <cc:Work
         rdf:about="">
        <dc:title>HTML5 Logo</dc:title>
      </cc:Work>
    </rdf:RDF>
  </metadata>
</svg>
