<?xml version="1.0" encoding="UTF-8" standalone="no"?>
<!-- Uploaded to: SVG Repo, www.svgrepo.com, Generator: SVG Repo Mixer Tools -->

<svg
   width="600.09998"
   height="427"
   viewBox="0 0 24.003999 17.08"
   version="1.1"
   id="svg1"
   sodipodi:docname="js.svg"
   inkscape:version="1.4.2 (f4327f4, 2025-05-13)"
   xmlns:inkscape="http://www.inkscape.org/namespaces/inkscape"
   xmlns:sodipodi="http://sodipodi.sourceforge.net/DTD/sodipodi-0.dtd"
   xmlns="http://www.w3.org/2000/svg"
   xmlns:svg="http://www.w3.org/2000/svg"
   xmlns:rdf="http://www.w3.org/1999/02/22-rdf-syntax-ns#"
   xmlns:cc="http://creativecommons.org/ns#"
   xmlns:dc="http://purl.org/dc/elements/1.1/">
  <defs
     id="defs1" />
  <sodipodi:namedview
     id="namedview1"
     pagecolor="#ffffff"
     bordercolor="#000000"
     borderopacity="0.25"
     inkscape:showpageshadow="2"
     inkscape:pageopacity="0.0"
     inkscape:pagecheckerboard="0"
     inkscape:deskcolor="#d1d1d1"
     inkscape:zoom="1.01875"
     inkscape:cx="355.33742"
     inkscape:cy="106.50307"
     inkscape:window-width="1920"
     inkscape:window-height="1017"
     inkscape:window-x="-8"
     inkscape:window-y="-8"
     inkscape:window-maximized="1"
     inkscape:current-layer="svg1" />
  <title
     id="title1">file_type_light_js</title>
  <path
     d="m 14.875,11.942501 a 3.727,3.727 0 0 0 3.376,2.078 c 1.418,0 2.324,-0.709 2.324,-1.688 0,-1.173 -0.931,-1.589 -2.491,-2.272 L 17.228,9.6935011 c -2.469,-1.052 -4.11,-2.37 -4.11,-5.156 0,-2.5669999 1.956,-4.51999993 5.012,-4.51999993 a 5.058,5.058 0 0 1 4.871,2.74499993 l -2.665,1.711 a 2.327,2.327 0 0 0 -2.2,-1.467 1.489,1.489 0 0 0 -1.638,1.467 c 0,1.027 0.636,1.442 2.1,2.078 l 0.856,0.366 c 2.908,1.247 4.549,2.518 4.549,5.3759999 0,3.081 -2.42,4.769 -5.671,4.769 a 6.575,6.575 0 0 1 -6.236,-3.5 z m -12.0880005,0.3 c 0.538,0.954 1.027,1.76 2.2,1.76 1.124,0 1.834,-0.44 1.834,-2.15 V 0.21750117 H 10.243 V 11.900501 c 0,3.543 -2.0780005,5.156 -5.1100005,5.156 a 5.312,5.312 0 0 1 -5.13199999414,-3.126 z"
     style="fill:#fbc02d"
     id="path1" />
  <metadata
     id="metadata1">
    <rdf:RDF>
      <cc:Work
         rdf:about="">
        <dc:title>file_type_light_js</dc:title>
      </cc:Work>
    </rdf:RDF>
  </metadata>
</svg>
